<svg id="icons" xmlns="http://www.w3.org/2000/svg" width="100" height="100" viewBox="0 0 100 100">
  <metadata><?xpacket begin="﻿" id="W5M0MpCehiHzreSzNTczkc9d"?>
<x:xmpmeta xmlns:x="adobe:ns:meta/" x:xmptk="Adobe XMP Core 5.6-c138 79.159824, 2016/09/14-01:09:01        ">
   <rdf:RDF xmlns:rdf="http://www.w3.org/1999/02/22-rdf-syntax-ns#">
      <rdf:Description rdf:about=""/>
   </rdf:RDF>
</x:xmpmeta>
                                                                                                    
                                                                                                    
                                                                                                    
                                                                                                    
                                                                                                    
                                                                                                    
                                                                                                    
                                                                                                    
                                                                                                    
                                                                                                    
                                                                                                    
                                                                                                    
                                                                                                    
                                                                                                    
                                                                                                    
                                                                                                    
                                                                                                    
                                                                                                    
                                                                                                    
                                                                                                    
                           
<?xpacket end="w"?></metadata>
<defs>
    <style>
      .cls-1 {
        fill: #fff;
        fill-rule: evenodd;
      }
    </style>
  </defs>
  <path id="help" class="cls-1" d="M54,57.353a15.564,15.564,0,0,1,3.989-4.338q6.209-5.212,8.1-8.238a11.887,11.887,0,0,0,1.9-6.415q0-6.124-5.162-10.735t-13.9-4.611q-8.3,0-13.411,4.557a15.658,15.658,0,0,0-5.505,11.081l9.314,1.166A11.87,11.87,0,0,1,42.9,33.04a9.594,9.594,0,0,1,6.462-2.223,9.158,9.158,0,0,1,6.371,2.132,6.662,6.662,0,0,1,2.364,5.121,6.426,6.426,0,0,1-1.336,3.937,44.441,44.441,0,0,1-5.307,4.775q-4.44,3.645-5.92,6.561a16.393,16.393,0,0,0-1.48,7.436q0,0.437.036,2.442h9.205Q53.22,58.993,54,57.353ZM54.231,77V66.757H44.088V77H54.231Z"/>
</svg>
